<?xml version="1.0" encoding="utf-8"?>
<!-- Generator: Adobe Illustrator 16.0.0, SVG Export Plug-In . SVG Version: 6.00 Build 0)  -->
<!DOCTYPE svg PUBLIC "-//W3C//DTD SVG 1.1//EN" "http://www.w3.org/Graphics/SVG/1.1/DTD/svg11.dtd">
<svg version="1.1" id="Layer_1" xmlns="http://www.w3.org/2000/svg" xmlns:xlink="http://www.w3.org/1999/xlink" x="0px" y="0px"
	 width="69.5px" height="100px" viewBox="0 0 69.5 100" enable-background="new 0 0 69.5 100" xml:space="preserve">
<path d="M40.815,73.837c0.038-0.649-0.119-1.163-0.394-1.546c0.064-5.225,0.134-10.451-0.154-15.664l27.637,4.631L48.107,38.779
	l11.204,1.84L45.244,24.675l8.588,1.411L34.75,3.519H34.75L15.668,26.085l8.586-1.411L10.188,40.619l11.205-1.84L1.596,61.258
	l29.337-4.914v16c-3.617-1.953-7.773-1.428-10.892,1.555c-0.278,0.128-0.548,0.341-0.796,0.661c-2.425,3.13-3.688,6.93-2.738,11.032
	c0.139,0.598,0.337,1.158,0.577,1.689c0.156,1.438,0.984,2.49,1.813,4.079c0.284,0.542,0.662,0.878,1.073,1.05
	c0.242,0.21,0.497,0.397,0.767,0.554c0.05,0.062,0.103,0.119,0.153,0.177c0.108,0.148,0.23,0.284,0.366,0.401
	c1.412,1.464,3.219,2.403,5.41,2.49c3.755,1.495,7.833-0.952,10.704-4.272c1.854-2.147,3.074-4.891,3.411-7.838
	C41.166,80.575,40.617,77.2,40.815,73.837z M34.126,74.039c-0.007,0.271-0.015,0.561-0.026,0.86
	c-0.063-0.083-0.131-0.166-0.208-0.246c-0.202-0.216-0.408-0.417-0.619-0.614H34.126z M25.379,76.27
	c1.659-0.626,3.049,0.318,4.166,1.402c-0.163,0.176-0.314,0.357-0.444,0.549c-0.214-0.738-0.779-1.393-1.773-1.69
	c-0.882-0.263-1.682-0.25-2.399-0.05C25.077,76.398,25.227,76.327,25.379,76.27z"/>
</svg>
